<?xml version="1.0" encoding="utf-8"?>
<!-- Generator: Adobe Illustrator 26.0.3, SVG Export Plug-In . SVG Version: 6.00 Build 0)  -->
<svg version="1.2" baseProfile="tiny" id="Layer_1" xmlns="http://www.w3.org/2000/svg" xmlns:xlink="http://www.w3.org/1999/xlink"
	 x="0px" y="0px" viewBox="0 0 1000 1000" overflow="visible" xml:space="preserve">
<g>
	<path fill="#FFFFFF" d="M500,0C223.86,0,0,223.86,0,500s223.86,500,500,500s500-223.86,500-500S776.14,0,500,0z M500,938.18
		C258,938.18,61.82,742,61.82,500S258,61.82,500,61.82S938.18,258,938.18,500S742,938.18,500,938.18z"/>
	<path fill="#FFFFFF" d="M826.04,382.17c35.15-40.82,0.99-136.17-87.73-138.91c-52.2-1.61-104.88,26.71-150.01,91.58
		c-37.75,54.28-62.59,144.48-62.59,144.48s71.12,2.63,134.4,34.68c17.83,9.03,66.84,39.27,116.81,40.07
		c20.07,0.32,40.28-4.1,58.7-16.56C887.92,502.14,889.47,405.6,826.04,382.17z M810.51,500.38c-9.14,6.18-19.89,9.08-32.87,8.87
		c-32.63-0.53-68.44-20.2-87.92-30.29c-34.69-17.96-76.65-31.27-104.51-36.86c9.89-26.48,23.71-58.39,39.89-81.66
		c18.07-25.97,38.09-44.6,58.26-57.38C724.5,277,776.38,289.46,792.5,322c15.52,36.66-25.26,71.29-25.26,71.29
		s58.33,18.18,61.81,58.57C831.38,471.13,823.58,491.54,810.51,500.38z"/>
	<path fill="#FFFFFF" d="M474.29,479.32c0,0-24.84-90.2-62.59-144.48c-45.13-64.87-97.81-93.19-150.01-91.58
		c-88.72,2.74-122.88,98.09-87.73,138.91c-63.43,23.43-61.88,119.97-9.58,155.34c18.42,12.46,38.63,16.88,58.7,16.56
		c49.97-0.8,98.98-31.04,116.81-40.07C403.17,481.95,474.29,479.32,474.29,479.32z M222.36,509.25
		c-12.98,0.21-23.73-2.69-32.87-8.87c-13.07-8.84-20.87-29.25-18.54-48.52c3.48-40.39,61.81-58.57,61.81-58.57
		S191.98,358.66,207.5,322c16.12-32.54,68-45,109.14-18.94c20.17,12.78,40.19,31.41,58.26,57.38c16.18,23.27,30,55.18,39.89,81.66
		c-27.86,5.59-69.82,18.9-104.51,36.86C290.79,489.05,254.99,508.72,222.36,509.25z"/>
	<path fill="#FFFFFF" d="M367,187.69c33.47,26.77,94.48,82.81,133,161.27c38.52-78.46,99.53-134.5,133-161.27
		c10.77-8.61,8.76-24.93-3.76-30.86c-6.98-3.3-15.36-2.3-21.3,2.58c-21.48,17.66-72.99,63.05-107.94,118.76
		c-34.95-55.71-86.46-101.11-107.94-118.76c-5.93-4.88-14.32-5.88-21.3-2.58C358.23,162.75,356.22,179.07,367,187.69z"/>
	<path fill="#FFFFFF" d="M706.38,611.65c-57.06-44.14-128.65-70.42-206.38-70.42s-149.31,26.27-206.38,70.42
		c-7.04,5.45-7.63,15.88-1.33,22.17l10.5,10.5c5.24,5.24,13.56,5.82,19.45,1.32c49.3-37.67,110.92-60.04,177.75-60.04
		s128.46,22.37,177.75,60.04c5.89,4.5,14.21,3.93,19.45-1.32l10.5-10.5C714,627.53,713.42,617.1,706.38,611.65z"/>
	<path fill="#FFFFFF" d="M647.96,668.95c-41.81-29.55-92.86-46.9-147.96-46.9s-106.14,17.35-147.96,46.9
		c-7.53,5.32-8.5,16.13-1.97,22.65l13.99,13.99c5.06,5.06,12.98,5.76,18.88,1.73c33.32-22.81,73.62-36.14,117.06-36.14
		s83.73,13.34,117.06,36.14c5.9,4.04,13.83,3.33,18.88-1.73l13.99-13.99C656.45,685.08,655.49,674.27,647.96,668.95z"/>
	<path fill="#FFFFFF" d="M587.21,727.81c-25.65-14.86-55.44-23.36-87.21-23.36s-61.56,8.5-87.21,23.36
		c-8.47,4.9-10.05,16.46-3.13,23.38l13.14,13.14c4.57,4.57,11.62,5.74,17.32,2.68C457.95,757.44,478.34,752,500,752
		s42.05,5.44,59.88,15.01c5.7,3.06,12.75,1.89,17.32-2.68l13.14-13.14C597.26,744.28,595.68,732.72,587.21,727.81z"/>
	<path fill="#FFFFFF" d="M532.4,792.7c-18.61-6.49-47.92-6.49-64.81,0c-19.06,7.33-27.32,27.19-12.89,41.63l39.92,39.92
		c2.96,2.96,7.77,2.96,10.74,0l39.92-39.92C559.73,819.89,551.68,799.42,532.4,792.7z"/>
</g>
</svg>
